 <svg xmlns="http://www.w3.org/2000/svg" xmlns:xlink="http://www.w3.org/1999/xlink" width="100" zoomAndPan="magnify" viewBox="0 0 375 374.999991" height="100" preserveAspectRatio="xMidYMid meet" version="1.0"><defs><g/><clipPath id="id1"><path d="M 75.875 75.230469 L 279.875 75.230469 L 279.875 279.230469 L 75.875 279.230469 Z M 75.875 75.230469 " clip-rule="nonzero"/></clipPath></defs><g clip-path="url(#id1)"><path fill="#ffffff" d="M 177.875 279.230469 C 121.648438 279.230469 75.875 233.453125 75.875 177.230469 C 75.875 121.003906 121.648438 75.230469 177.875 75.230469 C 234.101562 75.230469 279.875 121.003906 279.875 177.230469 C 279.875 233.453125 234.101562 279.230469 177.875 279.230469 Z M 177.875 76.738281 C 122.453125 76.738281 77.382812 121.808594 77.382812 177.230469 C 77.382812 232.652344 122.453125 277.722656 177.875 277.722656 C 233.296875 277.722656 278.367188 232.652344 278.367188 177.230469 C 278.367188 121.808594 233.296875 76.738281 177.875 76.738281 Z M 177.875 76.738281 " fill-opacity="1" fill-rule="nonzero"/></g><g fill="#ffffff" fill-opacity="1"><g transform="translate(105.653966, 297.99244)"><g><path d="M 1.03125 0 L 1 -0.765625 L 2.21875 -1.0625 C 2.21875 -1.15625 2.21875 -1.296875 2.21875 -1.484375 C 2.226562 -1.679688 2.234375 -1.910156 2.234375 -2.171875 C 2.234375 -2.441406 2.234375 -2.734375 2.234375 -3.046875 C 2.242188 -3.359375 2.25 -3.664062 2.25 -3.96875 L 2.25 -7.734375 C 2.25 -8.347656 2.242188 -8.863281 2.234375 -9.28125 C 2.234375 -9.695312 2.226562 -10.019531 2.21875 -10.25 C 2.207031 -10.488281 2.191406 -10.632812 2.171875 -10.6875 L 0.9375 -10.96875 L 1 -11.71875 L 5.375 -11.71875 C 6.625 -11.71875 7.578125 -11.472656 8.234375 -10.984375 C 8.898438 -10.503906 9.234375 -9.789062 9.234375 -8.84375 C 9.234375 -8.195312 9.050781 -7.613281 8.6875 -7.09375 C 8.332031 -6.582031 7.832031 -6.179688 7.1875 -5.890625 C 6.539062 -5.597656 5.800781 -5.453125 4.96875 -5.453125 L 3.6875 -5.453125 L 3.6875 -6.359375 L 4.828125 -6.359375 C 5.660156 -6.359375 6.304688 -6.5625 6.765625 -6.96875 C 7.222656 -7.382812 7.453125 -7.957031 7.453125 -8.6875 C 7.453125 -9.394531 7.25 -9.929688 6.84375 -10.296875 C 6.445312 -10.660156 5.878906 -10.84375 5.140625 -10.84375 L 3.96875 -10.84375 C 3.957031 -10.820312 3.945312 -10.769531 3.9375 -10.6875 C 3.9375 -10.601562 3.9375 -10.46875 3.9375 -10.28125 C 3.9375 -10.09375 3.9375 -9.816406 3.9375 -9.453125 C 3.9375 -9.097656 3.9375 -8.625 3.9375 -8.03125 L 3.9375 -3.96875 C 3.9375 -3.394531 3.9375 -2.914062 3.9375 -2.53125 C 3.945312 -2.144531 3.960938 -1.835938 3.984375 -1.609375 C 4.003906 -1.378906 4.019531 -1.195312 4.03125 -1.0625 L 5.21875 -0.765625 L 5.15625 0 Z M 10.5 0.203125 C 9.914062 0.203125 9.394531 0.09375 8.9375 -0.125 C 8.488281 -0.34375 8.054688 -0.710938 7.640625 -1.234375 C 7.222656 -1.753906 6.757812 -2.445312 6.25 -3.3125 L 4.890625 -5.796875 L 6.390625 -6.125 L 8.546875 -2.953125 C 8.921875 -2.410156 9.253906 -1.972656 9.546875 -1.640625 C 9.847656 -1.316406 10.144531 -1.070312 10.4375 -0.90625 C 10.738281 -0.75 11.0625 -0.640625 11.40625 -0.578125 L 11.390625 0.125 C 11.253906 0.144531 11.109375 0.160156 10.953125 0.171875 C 10.796875 0.191406 10.644531 0.203125 10.5 0.203125 Z M 10.5 0.203125 "/></g></g></g><g fill="#ffffff" fill-opacity="1"><g transform="translate(119.105175, 297.99244)"><g><path d="M 6.96875 0.1875 C 5.8125 0.1875 4.78125 -0.0664062 3.875 -0.578125 C 2.976562 -1.085938 2.273438 -1.789062 1.765625 -2.6875 C 1.265625 -3.59375 1.015625 -4.632812 1.015625 -5.8125 C 1.015625 -6.976562 1.269531 -8.019531 1.78125 -8.9375 C 2.300781 -9.863281 3.015625 -10.585938 3.921875 -11.109375 C 4.835938 -11.640625 5.867188 -11.90625 7.015625 -11.90625 C 8.128906 -11.90625 9.113281 -11.648438 9.96875 -11.140625 C 10.820312 -10.640625 11.488281 -9.941406 11.96875 -9.046875 C 12.457031 -8.148438 12.703125 -7.117188 12.703125 -5.953125 C 12.703125 -5.054688 12.546875 -4.234375 12.234375 -3.484375 C 11.929688 -2.742188 11.515625 -2.097656 10.984375 -1.546875 C 10.453125 -0.992188 9.84375 -0.566406 9.15625 -0.265625 C 8.46875 0.0351562 7.738281 0.1875 6.96875 0.1875 Z M 7.15625 -0.90625 C 7.882812 -0.90625 8.507812 -1.085938 9.03125 -1.453125 C 9.5625 -1.828125 9.96875 -2.359375 10.25 -3.046875 C 10.539062 -3.734375 10.6875 -4.539062 10.6875 -5.46875 C 10.6875 -6.550781 10.519531 -7.5 10.1875 -8.3125 C 9.851562 -9.125 9.394531 -9.757812 8.8125 -10.21875 C 8.238281 -10.675781 7.554688 -10.90625 6.765625 -10.90625 C 5.640625 -10.90625 4.742188 -10.484375 4.078125 -9.640625 C 3.421875 -8.796875 3.09375 -7.644531 3.09375 -6.1875 C 3.09375 -5.15625 3.265625 -4.238281 3.609375 -3.4375 C 3.960938 -2.644531 4.441406 -2.023438 5.046875 -1.578125 C 5.660156 -1.128906 6.363281 -0.90625 7.15625 -0.90625 Z M 7.15625 -0.90625 "/></g></g></g><g fill="#ffffff" fill-opacity="1"><g transform="translate(134.932806, 297.99244)"><g><path d="M 7.46875 0.1875 C 6.269531 0.1875 5.179688 -0.0351562 4.203125 -0.484375 C 3.222656 -0.929688 2.445312 -1.59375 1.875 -2.46875 C 1.300781 -3.351562 1.015625 -4.445312 1.015625 -5.75 C 1.015625 -6.59375 1.164062 -7.382812 1.46875 -8.125 C 1.769531 -8.863281 2.203125 -9.519531 2.765625 -10.09375 C 3.328125 -10.664062 4.019531 -11.109375 4.84375 -11.421875 C 5.664062 -11.742188 6.601562 -11.90625 7.65625 -11.90625 C 8.207031 -11.90625 8.789062 -11.847656 9.40625 -11.734375 C 10.03125 -11.628906 10.570312 -11.476562 11.03125 -11.28125 L 11.140625 -8.671875 L 10.265625 -8.59375 L 9.6875 -10.359375 C 9.4375 -10.546875 9.097656 -10.679688 8.671875 -10.765625 C 8.242188 -10.847656 7.847656 -10.890625 7.484375 -10.890625 C 6.460938 -10.890625 5.628906 -10.671875 4.984375 -10.234375 C 4.335938 -9.804688 3.859375 -9.234375 3.546875 -8.515625 C 3.242188 -7.796875 3.09375 -7 3.09375 -6.125 C 3.09375 -5 3.296875 -4.039062 3.703125 -3.25 C 4.109375 -2.457031 4.65625 -1.859375 5.34375 -1.453125 C 6.039062 -1.054688 6.820312 -0.859375 7.6875 -0.859375 C 8.0625 -0.859375 8.476562 -0.910156 8.9375 -1.015625 C 9.394531 -1.117188 9.804688 -1.304688 10.171875 -1.578125 L 9.6875 -0.453125 L 9.6875 -2.5625 C 9.6875 -3 9.675781 -3.382812 9.65625 -3.71875 C 9.644531 -4.050781 9.628906 -4.300781 9.609375 -4.46875 L 8.25 -4.6875 L 8.296875 -5.5 L 12.1875 -5.5 L 12.21875 -4.734375 L 11.34375 -4.5 C 11.34375 -4.425781 11.34375 -4.265625 11.34375 -4.015625 C 11.34375 -3.765625 11.34375 -3.457031 11.34375 -3.09375 C 11.34375 -2.625 11.347656 -2.226562 11.359375 -1.90625 C 11.378906 -1.59375 11.394531 -1.265625 11.40625 -0.921875 C 10.882812 -0.578125 10.257812 -0.304688 9.53125 -0.109375 C 8.8125 0.0859375 8.125 0.1875 7.46875 0.1875 Z M 7.46875 0.1875 "/></g></g></g><g fill="#ffffff" fill-opacity="1"><g transform="translate(150.001582, 297.99244)"><g><path d="M 9.703125 0.09375 C 9.316406 0.0625 8.972656 0.0351562 8.671875 0.015625 C 8.378906 0.00390625 8.097656 0 7.828125 0 L 0.984375 0 L 0.921875 -0.765625 L 2.15625 -1.03125 C 2.164062 -1.101562 2.175781 -1.257812 2.1875 -1.5 C 2.207031 -1.738281 2.21875 -2.0625 2.21875 -2.46875 C 2.226562 -2.882812 2.234375 -3.382812 2.234375 -3.96875 L 2.234375 -7.734375 C 2.234375 -8.328125 2.226562 -8.832031 2.21875 -9.25 C 2.21875 -9.675781 2.207031 -10.007812 2.1875 -10.25 C 2.175781 -10.488281 2.164062 -10.632812 2.15625 -10.6875 L 0.921875 -10.96875 L 0.984375 -11.71875 L 7.390625 -11.71875 C 7.578125 -11.71875 7.773438 -11.71875 7.984375 -11.71875 C 8.203125 -11.71875 8.425781 -11.726562 8.65625 -11.75 C 8.894531 -11.769531 9.140625 -11.785156 9.390625 -11.796875 L 9.78125 -9.171875 L 8.890625 -9.03125 L 8.234375 -10.703125 C 8.117188 -10.734375 7.992188 -10.75 7.859375 -10.75 C 7.734375 -10.757812 7.597656 -10.765625 7.453125 -10.765625 L 5.1875 -10.765625 C 4.9375 -10.765625 4.710938 -10.757812 4.515625 -10.75 C 4.328125 -10.75 4.140625 -10.734375 3.953125 -10.703125 C 3.953125 -10.648438 3.945312 -10.5 3.9375 -10.25 C 3.9375 -10.007812 3.929688 -9.726562 3.921875 -9.40625 C 3.921875 -9.082031 3.921875 -8.765625 3.921875 -8.453125 L 3.921875 -3.0625 C 3.921875 -2.789062 3.921875 -2.519531 3.921875 -2.25 C 3.929688 -1.976562 3.9375 -1.738281 3.9375 -1.53125 C 3.945312 -1.320312 3.953125 -1.171875 3.953125 -1.078125 C 4.148438 -1.066406 4.347656 -1.050781 4.546875 -1.03125 C 4.753906 -1.019531 4.984375 -1.015625 5.234375 -1.015625 L 7.171875 -1.015625 C 7.460938 -1.015625 7.703125 -1.015625 7.890625 -1.015625 C 8.078125 -1.023438 8.222656 -1.035156 8.328125 -1.046875 C 8.429688 -1.066406 8.519531 -1.082031 8.59375 -1.09375 L 9.625 -3 L 10.53125 -2.8125 Z M 7.484375 -4.09375 L 7.25 -5.453125 C 7.1875 -5.484375 7.070312 -5.503906 6.90625 -5.515625 C 6.75 -5.523438 6.554688 -5.53125 6.328125 -5.53125 L 4.8125 -5.53125 C 4.632812 -5.53125 4.441406 -5.523438 4.234375 -5.515625 C 4.035156 -5.503906 3.828125 -5.488281 3.609375 -5.46875 L 3.609375 -6.578125 C 3.828125 -6.554688 4.035156 -6.539062 4.234375 -6.53125 C 4.441406 -6.53125 4.632812 -6.53125 4.8125 -6.53125 L 6.328125 -6.53125 C 6.554688 -6.53125 6.75 -6.53125 6.90625 -6.53125 C 7.070312 -6.539062 7.1875 -6.5625 7.25 -6.59375 L 7.484375 -7.96875 L 8.34375 -7.96875 L 8.34375 -4.09375 Z M 7.484375 -4.09375 "/></g></g></g><g fill="#ffffff" fill-opacity="1"><g transform="translate(163.23312, 297.99244)"><g><path d="M 1.03125 0 L 1 -0.765625 L 2.21875 -1.0625 C 2.21875 -1.15625 2.21875 -1.296875 2.21875 -1.484375 C 2.226562 -1.679688 2.234375 -1.910156 2.234375 -2.171875 C 2.234375 -2.441406 2.234375 -2.734375 2.234375 -3.046875 C 2.242188 -3.359375 2.25 -3.664062 2.25 -3.96875 L 2.25 -7.734375 C 2.25 -8.347656 2.242188 -8.863281 2.234375 -9.28125 C 2.234375 -9.695312 2.226562 -10.019531 2.21875 -10.25 C 2.207031 -10.488281 2.191406 -10.632812 2.171875 -10.6875 L 0.9375 -10.96875 L 1 -11.71875 L 5.375 -11.71875 C 6.625 -11.71875 7.578125 -11.472656 8.234375 -10.984375 C 8.898438 -10.503906 9.234375 -9.789062 9.234375 -8.84375 C 9.234375 -8.195312 9.050781 -7.613281 8.6875 -7.09375 C 8.332031 -6.582031 7.832031 -6.179688 7.1875 -5.890625 C 6.539062 -5.597656 5.800781 -5.453125 4.96875 -5.453125 L 3.6875 -5.453125 L 3.6875 -6.359375 L 4.828125 -6.359375 C 5.660156 -6.359375 6.304688 -6.5625 6.765625 -6.96875 C 7.222656 -7.382812 7.453125 -7.957031 7.453125 -8.6875 C 7.453125 -9.394531 7.25 -9.929688 6.84375 -10.296875 C 6.445312 -10.660156 5.878906 -10.84375 5.140625 -10.84375 L 3.96875 -10.84375 C 3.957031 -10.820312 3.945312 -10.769531 3.9375 -10.6875 C 3.9375 -10.601562 3.9375 -10.46875 3.9375 -10.28125 C 3.9375 -10.09375 3.9375 -9.816406 3.9375 -9.453125 C 3.9375 -9.097656 3.9375 -8.625 3.9375 -8.03125 L 3.9375 -3.96875 C 3.9375 -3.394531 3.9375 -2.914062 3.9375 -2.53125 C 3.945312 -2.144531 3.960938 -1.835938 3.984375 -1.609375 C 4.003906 -1.378906 4.019531 -1.195312 4.03125 -1.0625 L 5.21875 -0.765625 L 5.15625 0 Z M 10.5 0.203125 C 9.914062 0.203125 9.394531 0.09375 8.9375 -0.125 C 8.488281 -0.34375 8.054688 -0.710938 7.640625 -1.234375 C 7.222656 -1.753906 6.757812 -2.445312 6.25 -3.3125 L 4.890625 -5.796875 L 6.390625 -6.125 L 8.546875 -2.953125 C 8.921875 -2.410156 9.253906 -1.972656 9.546875 -1.640625 C 9.847656 -1.316406 10.144531 -1.070312 10.4375 -0.90625 C 10.738281 -0.75 11.0625 -0.640625 11.40625 -0.578125 L 11.390625 0.125 C 11.253906 0.144531 11.109375 0.160156 10.953125 0.171875 C 10.796875 0.191406 10.644531 0.203125 10.5 0.203125 Z M 10.5 0.203125 "/></g></g></g><g fill="#ffffff" fill-opacity="1"><g transform="translate(176.684327, 297.99244)"><g><path d="M 0.984375 0 L 0.9375 -0.765625 L 2.15625 -1.03125 C 2.1875 -1.101562 2.203125 -1.257812 2.203125 -1.5 C 2.210938 -1.738281 2.21875 -2.0625 2.21875 -2.46875 C 2.226562 -2.882812 2.234375 -3.382812 2.234375 -3.96875 L 2.234375 -7.734375 C 2.234375 -8.328125 2.226562 -8.832031 2.21875 -9.25 C 2.21875 -9.675781 2.210938 -10.007812 2.203125 -10.25 C 2.203125 -10.5 2.1875 -10.644531 2.15625 -10.6875 L 0.9375 -10.96875 L 0.984375 -11.71875 L 5.234375 -11.71875 L 5.265625 -10.96875 L 4.046875 -10.6875 C 4.023438 -10.644531 4.003906 -10.515625 3.984375 -10.296875 C 3.960938 -10.078125 3.945312 -9.757812 3.9375 -9.34375 C 3.9375 -8.9375 3.9375 -8.398438 3.9375 -7.734375 L 3.9375 -3.96875 C 3.9375 -3.332031 3.9375 -2.804688 3.9375 -2.390625 C 3.945312 -1.984375 3.960938 -1.671875 3.984375 -1.453125 C 4.003906 -1.234375 4.023438 -1.09375 4.046875 -1.03125 L 5.265625 -0.765625 L 5.234375 0 Z M 0.984375 0 "/></g></g></g><g fill="#ffffff" fill-opacity="1"><g transform="translate(185.00326, 297.99244)"><g><path d="M 6.96875 0.1875 C 5.8125 0.1875 4.78125 -0.0664062 3.875 -0.578125 C 2.976562 -1.085938 2.273438 -1.789062 1.765625 -2.6875 C 1.265625 -3.59375 1.015625 -4.632812 1.015625 -5.8125 C 1.015625 -6.976562 1.269531 -8.019531 1.78125 -8.9375 C 2.300781 -9.863281 3.015625 -10.585938 3.921875 -11.109375 C 4.835938 -11.640625 5.867188 -11.90625 7.015625 -11.90625 C 8.128906 -11.90625 9.113281 -11.648438 9.96875 -11.140625 C 10.820312 -10.640625 11.488281 -9.941406 11.96875 -9.046875 C 12.457031 -8.148438 12.703125 -7.117188 12.703125 -5.953125 C 12.703125 -5.054688 12.546875 -4.234375 12.234375 -3.484375 C 11.929688 -2.742188 11.515625 -2.097656 10.984375 -1.546875 C 10.453125 -0.992188 9.84375 -0.566406 9.15625 -0.265625 C 8.46875 0.0351562 7.738281 0.1875 6.96875 0.1875 Z M 7.15625 -0.90625 C 7.882812 -0.90625 8.507812 -1.085938 9.03125 -1.453125 C 9.5625 -1.828125 9.96875 -2.359375 10.25 -3.046875 C 10.539062 -3.734375 10.6875 -4.539062 10.6875 -5.46875 C 10.6875 -6.550781 10.519531 -7.5 10.1875 -8.3125 C 9.851562 -9.125 9.394531 -9.757812 8.8125 -10.21875 C 8.238281 -10.675781 7.554688 -10.90625 6.765625 -10.90625 C 5.640625 -10.90625 4.742188 -10.484375 4.078125 -9.640625 C 3.421875 -8.796875 3.09375 -7.644531 3.09375 -6.1875 C 3.09375 -5.15625 3.265625 -4.238281 3.609375 -3.4375 C 3.960938 -2.644531 4.441406 -2.023438 5.046875 -1.578125 C 5.660156 -1.128906 6.363281 -0.90625 7.15625 -0.90625 Z M 7.15625 -0.90625 "/></g></g></g><g fill="#ffffff" fill-opacity="1"><g transform="translate(200.83089, 297.99244)"><g/></g></g><g fill="#ffffff" fill-opacity="1"><g transform="translate(206.793376, 297.99244)"><g><path d="M 4.046875 -10.6875 C 4.023438 -10.644531 4.003906 -10.507812 3.984375 -10.28125 C 3.960938 -10.0625 3.945312 -9.738281 3.9375 -9.3125 C 3.9375 -8.894531 3.9375 -8.367188 3.9375 -7.734375 L 3.953125 -0.3125 C 3.953125 0.613281 3.820312 1.398438 3.5625 2.046875 C 3.300781 2.703125 2.929688 3.195312 2.453125 3.53125 C 1.972656 3.875 1.398438 4.046875 0.734375 4.046875 C 0.117188 4.046875 -0.410156 3.90625 -0.859375 3.625 C -1.304688 3.351562 -1.53125 3.023438 -1.53125 2.640625 C -1.53125 2.410156 -1.460938 2.226562 -1.328125 2.09375 C -1.191406 1.957031 -1.003906 1.890625 -0.765625 1.890625 C -0.585938 1.890625 -0.410156 1.929688 -0.234375 2.015625 C -0.0664062 2.109375 0.101562 2.242188 0.28125 2.421875 L 1.3125 3.453125 L 0.625 3.21875 C 1.007812 3.28125 1.316406 3.234375 1.546875 3.078125 C 1.773438 2.921875 1.945312 2.628906 2.0625 2.203125 C 2.175781 1.785156 2.234375 1.234375 2.234375 0.546875 L 2.234375 -7.734375 C 2.234375 -8.316406 2.226562 -8.8125 2.21875 -9.21875 C 2.21875 -9.625 2.210938 -9.953125 2.203125 -10.203125 C 2.203125 -10.460938 2.1875 -10.625 2.15625 -10.6875 L 0.796875 -10.96875 L 0.84375 -11.71875 L 5.234375 -11.71875 L 5.265625 -10.96875 Z M 4.046875 -10.6875 "/></g></g></g><g fill="#ffffff" fill-opacity="1"><g transform="translate(215.112314, 297.99244)"><g><path d="M 6.96875 0.1875 C 5.8125 0.1875 4.78125 -0.0664062 3.875 -0.578125 C 2.976562 -1.085938 2.273438 -1.789062 1.765625 -2.6875 C 1.265625 -3.59375 1.015625 -4.632812 1.015625 -5.8125 C 1.015625 -6.976562 1.269531 -8.019531 1.78125 -8.9375 C 2.300781 -9.863281 3.015625 -10.585938 3.921875 -11.109375 C 4.835938 -11.640625 5.867188 -11.90625 7.015625 -11.90625 C 8.128906 -11.90625 9.113281 -11.648438 9.96875 -11.140625 C 10.820312 -10.640625 11.488281 -9.941406 11.96875 -9.046875 C 12.457031 -8.148438 12.703125 -7.117188 12.703125 -5.953125 C 12.703125 -5.054688 12.546875 -4.234375 12.234375 -3.484375 C 11.929688 -2.742188 11.515625 -2.097656 10.984375 -1.546875 C 10.453125 -0.992188 9.84375 -0.566406 9.15625 -0.265625 C 8.46875 0.0351562 7.738281 0.1875 6.96875 0.1875 Z M 7.15625 -0.90625 C 7.882812 -0.90625 8.507812 -1.085938 9.03125 -1.453125 C 9.5625 -1.828125 9.96875 -2.359375 10.25 -3.046875 C 10.539062 -3.734375 10.6875 -4.539062 10.6875 -5.46875 C 10.6875 -6.550781 10.519531 -7.5 10.1875 -8.3125 C 9.851562 -9.125 9.394531 -9.757812 8.8125 -10.21875 C 8.238281 -10.675781 7.554688 -10.90625 6.765625 -10.90625 C 5.640625 -10.90625 4.742188 -10.484375 4.078125 -9.640625 C 3.421875 -8.796875 3.09375 -7.644531 3.09375 -6.1875 C 3.09375 -5.15625 3.265625 -4.238281 3.609375 -3.4375 C 3.960938 -2.644531 4.441406 -2.023438 5.046875 -1.578125 C 5.660156 -1.128906 6.363281 -0.90625 7.15625 -0.90625 Z M 7.15625 -0.90625 "/></g></g></g><g fill="#ffffff" fill-opacity="1"><g transform="translate(230.93995, 297.99244)"><g><path d="M 4.5 0.1875 C 3.90625 0.1875 3.300781 0.113281 2.6875 -0.03125 C 2.082031 -0.1875 1.578125 -0.375 1.171875 -0.59375 L 1.078125 -3.171875 L 1.9375 -3.25 L 2.5 -1.484375 C 2.8125 -1.265625 3.164062 -1.097656 3.5625 -0.984375 C 3.957031 -0.867188 4.367188 -0.8125 4.796875 -0.8125 C 5.441406 -0.8125 5.960938 -0.972656 6.359375 -1.296875 C 6.765625 -1.617188 6.96875 -2.050781 6.96875 -2.59375 C 6.96875 -3.0625 6.828125 -3.453125 6.546875 -3.765625 C 6.265625 -4.078125 5.898438 -4.347656 5.453125 -4.578125 C 5.015625 -4.816406 4.546875 -5.046875 4.046875 -5.265625 C 3.546875 -5.484375 3.078125 -5.734375 2.640625 -6.015625 C 2.203125 -6.304688 1.835938 -6.660156 1.546875 -7.078125 C 1.265625 -7.492188 1.125 -8.019531 1.125 -8.65625 C 1.125 -9.289062 1.304688 -9.859375 1.671875 -10.359375 C 2.035156 -10.859375 2.535156 -11.242188 3.171875 -11.515625 C 3.816406 -11.785156 4.550781 -11.921875 5.375 -11.921875 C 5.71875 -11.921875 6.050781 -11.90625 6.375 -11.875 C 6.707031 -11.84375 7.007812 -11.789062 7.28125 -11.71875 C 7.5625 -11.644531 7.816406 -11.5625 8.046875 -11.46875 L 8.203125 -8.96875 L 7.34375 -8.890625 L 6.796875 -10.5625 C 6.367188 -10.832031 5.820312 -10.96875 5.15625 -10.96875 C 4.476562 -10.96875 3.9375 -10.800781 3.53125 -10.46875 C 3.125 -10.132812 2.921875 -9.703125 2.921875 -9.171875 C 2.921875 -8.691406 3.0625 -8.285156 3.34375 -7.953125 C 3.632812 -7.628906 4 -7.347656 4.4375 -7.109375 C 4.882812 -6.867188 5.359375 -6.640625 5.859375 -6.421875 C 6.359375 -6.203125 6.832031 -5.953125 7.28125 -5.671875 C 7.726562 -5.390625 8.09375 -5.046875 8.375 -4.640625 C 8.664062 -4.234375 8.8125 -3.734375 8.8125 -3.140625 C 8.8125 -2.492188 8.625 -1.921875 8.25 -1.421875 C 7.875 -0.921875 7.363281 -0.523438 6.71875 -0.234375 C 6.070312 0.046875 5.332031 0.1875 4.5 0.1875 Z M 4.5 0.1875 "/></g></g></g><g fill="#ffffff" fill-opacity="1"><g transform="translate(242.633809, 297.99244)"><g><path d="M 9.703125 0.09375 C 9.316406 0.0625 8.972656 0.0351562 8.671875 0.015625 C 8.378906 0.00390625 8.097656 0 7.828125 0 L 0.984375 0 L 0.921875 -0.765625 L 2.15625 -1.03125 C 2.164062 -1.101562 2.175781 -1.257812 2.1875 -1.5 C 2.207031 -1.738281 2.21875 -2.0625 2.21875 -2.46875 C 2.226562 -2.882812 2.234375 -3.382812 2.234375 -3.96875 L 2.234375 -7.734375 C 2.234375 -8.328125 2.226562 -8.832031 2.21875 -9.25 C 2.21875 -9.675781 2.207031 -10.007812 2.1875 -10.25 C 2.175781 -10.488281 2.164062 -10.632812 2.15625 -10.6875 L 0.921875 -10.96875 L 0.984375 -11.71875 L 7.390625 -11.71875 C 7.578125 -11.71875 7.773438 -11.71875 7.984375 -11.71875 C 8.203125 -11.71875 8.425781 -11.726562 8.65625 -11.75 C 8.894531 -11.769531 9.140625 -11.785156 9.390625 -11.796875 L 9.78125 -9.171875 L 8.890625 -9.03125 L 8.234375 -10.703125 C 8.117188 -10.734375 7.992188 -10.75 7.859375 -10.75 C 7.734375 -10.757812 7.597656 -10.765625 7.453125 -10.765625 L 5.1875 -10.765625 C 4.9375 -10.765625 4.710938 -10.757812 4.515625 -10.75 C 4.328125 -10.75 4.140625 -10.734375 3.953125 -10.703125 C 3.953125 -10.648438 3.945312 -10.5 3.9375 -10.25 C 3.9375 -10.007812 3.929688 -9.726562 3.921875 -9.40625 C 3.921875 -9.082031 3.921875 -8.765625 3.921875 -8.453125 L 3.921875 -3.0625 C 3.921875 -2.789062 3.921875 -2.519531 3.921875 -2.25 C 3.929688 -1.976562 3.9375 -1.738281 3.9375 -1.53125 C 3.945312 -1.320312 3.953125 -1.171875 3.953125 -1.078125 C 4.148438 -1.066406 4.347656 -1.050781 4.546875 -1.03125 C 4.753906 -1.019531 4.984375 -1.015625 5.234375 -1.015625 L 7.171875 -1.015625 C 7.460938 -1.015625 7.703125 -1.015625 7.890625 -1.015625 C 8.078125 -1.023438 8.222656 -1.035156 8.328125 -1.046875 C 8.429688 -1.066406 8.519531 -1.082031 8.59375 -1.09375 L 9.625 -3 L 10.53125 -2.8125 Z M 7.484375 -4.09375 L 7.25 -5.453125 C 7.1875 -5.484375 7.070312 -5.503906 6.90625 -5.515625 C 6.75 -5.523438 6.554688 -5.53125 6.328125 -5.53125 L 4.8125 -5.53125 C 4.632812 -5.53125 4.441406 -5.523438 4.234375 -5.515625 C 4.035156 -5.503906 3.828125 -5.488281 3.609375 -5.46875 L 3.609375 -6.578125 C 3.828125 -6.554688 4.035156 -6.539062 4.234375 -6.53125 C 4.441406 -6.53125 4.632812 -6.53125 4.8125 -6.53125 L 6.328125 -6.53125 C 6.554688 -6.53125 6.75 -6.53125 6.90625 -6.53125 C 7.070312 -6.539062 7.1875 -6.5625 7.25 -6.59375 L 7.484375 -7.96875 L 8.34375 -7.96875 L 8.34375 -4.09375 Z M 7.484375 -4.09375 "/></g></g></g><g fill="#ffffff" fill-opacity="1"><g transform="translate(255.864897, 297.99244)"><g/></g></g><g fill="#ffffff" fill-opacity="1"><g transform="translate(119.453625, 210.708613)"><g><path d="M 62.894531 -22.417969 C 57.230469 -36.578125 48.613281 -42.007812 38.347656 -43.894531 C 55.695312 -45.191406 69.382812 -51.210938 69.382812 -69.027344 C 69.382812 -89.558594 51.09375 -94.398438 30.089844 -94.398438 L 8.261719 -94.398438 C 8.96875 -84.484375 9.203125 -79.765625 9.203125 -71.152344 L 9.203125 -23.246094 C 9.203125 -14.632812 8.96875 -9.910156 8.261719 0 L 21.710938 0 C 21.003906 -9.910156 20.765625 -14.632812 20.765625 -23.246094 L 20.765625 -43.660156 L 25.015625 -43.660156 C 37.167969 -43.660156 44.484375 -40.121094 51.09375 -21.59375 C 56.875 -5.074219 65.722656 0 85.195312 0 L 85.195312 -1.769531 C 74.21875 -1.769531 68.910156 -6.609375 62.894531 -22.417969 Z M 20.765625 -45.546875 L 20.765625 -92.511719 L 29.972656 -92.511719 C 43.777344 -92.511719 57.347656 -87.789062 57.347656 -69.027344 C 57.347656 -50.265625 43.777344 -45.546875 29.972656 -45.546875 Z M 20.765625 -45.546875 "/></g></g></g><g fill="#ffffff" fill-opacity="1"><g transform="translate(191.116809, 230.291344)"><g><path d="M 11.683594 -94.398438 C 12.390625 -84.484375 12.625 -79.765625 12.625 -71.152344 L 12.625 3.894531 C 12.625 16.753906 10.265625 20.53125 2.359375 24.660156 L 2.949219 25.960938 C 14.160156 23.246094 24.191406 18.878906 24.191406 1.414062 L 24.191406 -71.152344 C 24.191406 -79.765625 24.308594 -84.484375 25.132812 -94.398438 Z M 11.683594 -94.398438 "/></g></g></g></svg> 