<?xml version="1.0" encoding="UTF-8"?>
<svg xmlns="http://www.w3.org/2000/svg" xmlns:xlink="http://www.w3.org/1999/xlink" viewBox="0 0 24 24" width="24px" height="24px">
<g id="surface33522926">
<path style="fill-rule:nonzero;fill:#fff;fill-opacity:1;stroke-width:10;stroke-linecap:butt;stroke-linejoin:round;stroke-opacity:1;stroke-miterlimit:10;" d="M 136.716491 35.313134 C 150.225089 48.851356 157.660743 66.833196 157.660743 85.970377 C 157.631119 125.400078 125.518575 157.512622 86.059249 157.512622 L 86.029625 157.512622 C 74.061481 157.512622 62.300706 154.520586 51.843392 148.803132 L 14.339258 157.660743 L 24.055969 121.667439 C 17.775656 110.825012 14.487379 98.501379 14.487379 85.881504 C 14.487379 46.422178 46.629547 14.339258 86.088873 14.339258 C 105.226053 14.339258 123.207893 21.804536 136.716491 35.313134 Z M 28.825452 85.881504 C 28.825452 95.953704 31.461999 105.84816 36.468475 114.498403 L 39.430887 119.652999 L 37.890432 125.400078 L 34.424411 138.168073 L 48.555115 134.850172 L 53.887456 133.605959 L 58.716188 136.212881 C 67.040565 140.774996 76.490659 143.174549 86.059249 143.174549 C 117.638559 143.174549 143.293046 117.520063 143.32267 85.940752 C 143.32267 70.654707 137.397846 56.257386 126.585043 45.444583 C 115.77224 34.631779 101.374918 28.677332 86.059249 28.677332 C 54.509563 28.677332 28.825452 54.331818 28.825452 85.881504 Z M 64.167025 52.90986 C 65.440862 52.939485 66.86282 53.028357 68.195905 55.990769 C 69.795608 59.516039 73.26163 68.37365 73.705991 69.262374 C 74.150353 70.151097 74.446594 71.217566 73.854112 72.40253 C 73.26163 73.587495 72.965389 74.328098 72.076665 75.364942 C 71.187941 76.43141 70.210346 77.705247 69.410494 78.505099 C 68.492147 79.393822 67.573799 80.371418 68.610643 82.178489 C 69.647487 83.955936 73.232006 89.791888 78.564347 94.531747 C 85.377894 100.634315 91.154597 102.530259 92.932044 103.418982 C 94.739116 104.33733 95.77596 104.159585 96.812804 102.97462 C 97.879272 101.789656 101.286046 97.760776 102.47101 95.953704 C 103.655975 94.176257 104.870564 94.472498 106.499891 95.064981 C 108.158841 95.657463 116.92758 99.982585 118.734651 100.871308 C 120.512099 101.789656 121.697063 102.234018 122.141425 102.97462 C 122.585787 103.715223 122.585787 107.299742 121.104581 111.476742 C 119.623375 115.653743 112.306218 119.682623 109.017941 119.978864 C 105.729663 120.275106 102.678379 121.46007 87.570079 115.505623 C 69.38087 108.336586 57.886712 89.703015 56.997989 88.518051 C 56.109265 87.303462 49.710456 78.80134 49.710456 70.002977 C 49.710456 61.204614 54.331818 56.879492 55.961145 55.102045 C 57.620095 53.294974 59.545663 52.850612 60.760252 52.850612 C 61.945216 52.850612 63.130181 52.850612 64.167025 52.90986 Z M 64.167025 52.90986 " transform="matrix(0.13186,0,0,0.13186,0.66,0.66)"/>
<path style=" stroke:none;fill-rule:nonzero;fill:#fff;fill-opacity:1;" d="M 12.011719 2.550781 C 6.808594 2.550781 2.570312 6.78125 2.570312 11.984375 C 2.570312 13.648438 3.003906 15.273438 3.832031 16.703125 L 2.550781 21.449219 L 7.496094 20.28125 C 8.875 21.035156 10.425781 21.429688 12.003906 21.429688 L 12.007812 21.429688 C 17.210938 21.429688 21.445312 17.195312 21.449219 11.996094 C 21.449219 9.472656 20.46875 7.101562 18.6875 5.316406 C 16.90625 3.535156 14.535156 2.550781 12.011719 2.550781 Z M 12.007812 4.441406 C 14.027344 4.441406 15.925781 5.226562 17.351562 6.652344 C 18.777344 8.078125 19.558594 9.976562 19.558594 11.992188 C 19.554688 16.15625 16.171875 19.539062 12.007812 19.539062 C 10.746094 19.539062 9.5 19.222656 8.402344 18.621094 L 7.765625 18.277344 L 7.0625 18.441406 L 5.199219 18.878906 L 5.65625 17.195312 L 5.859375 16.4375 L 5.46875 15.757812 C 4.808594 14.617188 4.460938 13.3125 4.460938 11.984375 C 4.460938 7.824219 7.847656 4.441406 12.007812 4.441406 Z M 8.671875 7.628906 C 8.511719 7.628906 8.257812 7.6875 8.039062 7.925781 C 7.824219 8.160156 7.214844 8.730469 7.214844 9.890625 C 7.214844 11.050781 8.058594 12.171875 8.175781 12.332031 C 8.292969 12.488281 9.808594 14.945312 12.207031 15.890625 C 14.199219 16.675781 14.601562 16.519531 15.035156 16.480469 C 15.46875 16.441406 16.433594 15.910156 16.628906 15.359375 C 16.824219 14.808594 16.824219 14.335938 16.765625 14.238281 C 16.707031 14.140625 16.550781 14.082031 16.316406 13.960938 C 16.078125 13.84375 14.921875 13.273438 14.703125 13.195312 C 14.488281 13.117188 14.328125 13.078125 14.171875 13.3125 C 14.015625 13.550781 13.566406 14.082031 13.425781 14.238281 C 13.289062 14.394531 13.152344 14.417969 12.914062 14.296875 C 12.679688 14.179688 11.917969 13.929688 11.019531 13.125 C 10.316406 12.5 9.84375 11.730469 9.707031 11.496094 C 9.570312 11.257812 9.691406 11.128906 9.8125 11.011719 C 9.917969 10.90625 10.046875 10.738281 10.164062 10.597656 C 10.28125 10.460938 10.320312 10.363281 10.398438 10.207031 C 10.476562 10.050781 10.4375 9.910156 10.378906 9.792969 C 10.320312 9.675781 9.863281 8.507812 9.652344 8.042969 C 9.476562 7.652344 9.289062 7.640625 9.121094 7.636719 C 8.984375 7.628906 8.828125 7.628906 8.671875 7.628906 Z M 8.671875 7.628906 "/>
</g>
</svg>
